# xmcd
#
# Track frame offsets:
#	150
#	25425
#	55385
#	80468
#	103383
#	129680
#	148613
#	175308
#	194205
#	219763
#	239645
#	262355
#	285025
#
# Disc length: 4051 seconds
#
# Revision: 1
# Processed by: cddbd v1.5.1PL0 Copyright (c) Steve Scherf et al.
# Submitted via: CDex 1.50Beta5
#
DISCID=d00fd10d
DTITLE=ChanteMoore - Mood
DYEAR=1900
DGENRE=R&B
TTITLE0=Searchin’
TTITLE1=Love’sTakenOver
TTITLE2=Amazing
TTITLE3=BetterThanMakingLove
TTITLE4=Free/Seailon
TTITLE5=Mood
TTITLE6=Preciour
TTITLE7=IStartedCrying
TTITLE8=It’sAlright
TTITLE9=IseeyouinaDifferentLight
TTITLE10=BloomingFlower
TTITLE11=ThisMomentisMine
TTITLE12=Tonight
EXTD=
EXTT0=
EXTT1=
EXTT2=
EXTT3=
EXTT4=
EXTT5=
EXTT6=
EXTT7=
EXTT8=
EXTT9=
EXTT10=
EXTT11=
EXTT12=
PLAYORDER=
